<?xml version="1.0" encoding="UTF-8" standalone="no"?>
<!-- Generator: Adobe Illustrator 19.0.0, SVG Export Plug-In . SVG Version: 6.00 Build 0)  -->

<svg
   version="1.1"
   id="Layer_1"
   x="0px"
   y="0px"
   viewBox="0 0 512 512"
   style="enable-background:new 0 0 512 512;"
   xml:space="preserve"
   sodipodi:docname="spotify.svg"
   inkscape:version="1.2 (dc2aedaf03, 2022-05-15)"
   xmlns:inkscape="http://www.inkscape.org/namespaces/inkscape"
   xmlns:sodipodi="http://sodipodi.sourceforge.net/DTD/sodipodi-0.dtd"
   xmlns="http://www.w3.org/2000/svg"
   xmlns:svg="http://www.w3.org/2000/svg"><defs
   id="defs47" /><sodipodi:namedview
   id="namedview45"
   pagecolor="#505050"
   bordercolor="#eeeeee"
   borderopacity="1"
   inkscape:showpageshadow="0"
   inkscape:pageopacity="0"
   inkscape:pagecheckerboard="0"
   inkscape:deskcolor="#505050"
   showgrid="false"
   inkscape:zoom="1.7070312"
   inkscape:cx="274.45309"
   inkscape:cy="234.32494"
   inkscape:window-width="1904"
   inkscape:window-height="1040"
   inkscape:window-x="8"
   inkscape:window-y="32"
   inkscape:window-maximized="1"
   inkscape:current-layer="Layer_1" />

<path
   style="fill:#20A83E;"
   d="M34.133,256c0-135.648,105.508-246.636,238.933-255.42C267.424,0.208,261.737,0,256,0  C114.615,0,0,114.615,0,256s114.615,256,256,256c5.737,0,11.424-0.208,17.067-0.58C139.642,502.636,34.133,391.648,34.133,256z"
   id="path4" />
<g
   id="g12"
   style="fill:none">
	<path
   style="fill:none"
   d="M358.23,335.212L358.23,335.212c-48.438-21.419-100.06-32.278-153.43-32.278   c-31.435,0-62.695,3.854-92.913,11.454c-11.408,2.869-18.355,14.485-15.485,25.893c2.869,11.406,14.483,18.353,25.893,15.485   c26.816-6.746,54.575-10.165,82.506-10.165c47.392,0,93.207,9.634,136.176,28.635c8.213,3.631,18.391,1.478,24.423-5.178   c5.613-6.194,6.945-15.57,3.569-23.173C366.867,341.153,362.961,337.303,358.23,335.212z"
   id="path6" />
	<path
   style="fill:none"
   d="M386.652,259.147c-57.538-24.737-118.722-37.28-181.852-37.28c-31.25,0-62.486,3.15-92.839,9.361   c-13.662,2.796-22.749,16.529-19.949,30.212c2.829,13.822,16.377,22.777,30.212,19.948c26.986-5.521,54.768-8.321,82.576-8.321   c56.134,0,110.515,11.142,161.63,33.118c9.554,4.107,21.119,1.799,28.405-5.61c7.328-7.452,9.173-19.09,4.917-28.574   C397.177,266.262,392.429,261.631,386.652,259.147z"
   id="path8" />
	<path
   style="fill:none"
   d="M444.853,196.524c-2.849-7.452-8.429-13.348-15.712-16.603   C358.38,148.3,282.901,132.267,204.8,132.267c-36.37,0-72.745,3.573-108.113,10.621c-11.318,2.255-20.645,11.296-23.27,22.532   c-2.902,12.42,2.736,25.532,13.526,32.211c6.365,3.94,14.074,5.305,21.417,3.838C139.894,195.186,172.341,192,204.8,192   c69.648,0,136.928,14.285,199.971,42.457c8.618,3.852,18.891,3.334,27.07-1.381c7.268-4.191,12.572-11.468,14.337-19.669   C447.383,207.802,446.899,201.874,444.853,196.524z"
   id="path10" />
</g>
<g
   id="g14">
</g>
<g
   id="g16">
</g>
<g
   id="g18">
</g>
<g
   id="g20">
</g>
<g
   id="g22">
</g>
<g
   id="g24">
</g>
<g
   id="g26">
</g>
<g
   id="g28">
</g>
<g
   id="g30">
</g>
<g
   id="g32">
</g>
<g
   id="g34">
</g>
<g
   id="g36">
</g>
<g
   id="g38">
</g>
<g
   id="g40">
</g>
<g
   id="g42">
</g>
<path
   style="fill:#87b0f9;stroke-width:0.585812"
   d="m 267.13043,510.7733 c -0.96659,-0.13944 -5.18443,-0.66397 -9.37299,-1.16563 C 205.92041,503.39913 154.53036,479.26401 115.72182,442.90122 72.091351,402.0204 44.186833,347.8838 36.603703,289.40689 30.997063,246.17158 36.316932,202.78623 52.229022,161.97712 56.036923,152.21114 66.20984,131.88518 71.872922,122.72769 115.26901,52.554026 187.45852,8.0615759 269.18078,1.1212527 c 6.20603,-0.52705208 21.68002,1.160409 35.73455,3.8969068 46.76078,9.1045885 90.10853,31.2516045 125.65675,64.1999235 21.81875,20.222974 40.32353,45.088867 54.2074,72.841417 32.46724,64.899 35.70213,140.17618 8.93682,207.96338 -19.09742,48.36712 -52.70405,89.90057 -95.94971,118.58142 -11.68155,7.7473 -16.47752,10.52243 -28.89572,16.72014 -24.5334,12.24421 -52.80811,20.78002 -80.65119,24.34768 -7.4968,0.9606 -18.19233,1.51907 -21.08925,1.10118 z m 90.62686,-136.13148 c 4.61514,-1.72675 8.766,-5.61631 11.14013,-10.43885 1.76485,-3.58493 1.9218,-4.36024 1.9218,-9.49359 0,-5.13334 -0.15695,-5.90866 -1.9218,-9.49359 -2.78259,-5.65225 -6.17251,-8.44679 -14.60404,-12.03911 -67.345,-28.69292 -141.21278,-37.34766 -213.69841,-25.03806 -14.94828,2.53853 -28.87218,5.73815 -32.80373,7.53808 -4.2157,1.93001 -7.36721,4.94063 -9.726779,9.29196 -1.921206,3.54294 -1.991234,3.89869 -1.991234,10.11601 0,6.21732 0.07003,6.57307 1.991234,10.11601 3.703429,6.82955 9.830579,10.75171 17.437979,11.16253 3.34731,0.18077 6.37471,-0.2572 14.93822,-2.16107 27.89308,-6.20129 53.81092,-8.74766 82.20923,-8.07686 42.84574,1.01206 80.04352,8.802 120.70117,25.2772 5.81265,2.35539 11.21677,4.42031 12.00916,4.58871 2.74429,0.58323 9.07279,-0.10561 12.39707,-1.34937 z m 25.34351,-67.10961 c 6.99307,-1.82146 13.18333,-6.73195 16.28348,-12.91702 4.93582,-9.84742 3.23168,-21.85838 -4.21907,-29.73645 -3.61195,-3.81911 -5.93453,-5.10685 -17.95425,-9.95461 -37.44038,-15.10035 -75.91288,-25.00583 -116.42392,-29.97554 -30.63555,-3.75824 -70.85848,-4.20894 -101.15317,-1.13343 -25.85432,2.62472 -48.53998,6.62004 -54.31793,9.56627 -4.17201,2.12736 -8.900253,6.89149 -11.19365,11.2786 -8.805642,16.84459 3.681579,37.31102 22.81546,37.3943 1.80958,0.008 6.68647,-0.62386 10.83753,-1.40386 64.71559,-12.16029 130.49698,-8.97693 192.66408,9.32361 12.35204,3.63615 22.82719,7.28415 35.73455,12.44464 6.12174,2.44754 12.31671,4.78359 13.76659,5.19124 3.64012,1.02344 9.05537,0.99145 13.1603,-0.0777 z m 43.07769,-71.75679 c 10.06789,-2.93191 17.95032,-11.8111 20.26944,-22.83263 2.09451,-9.95406 -1.21092,-20.23807 -8.89448,-27.67289 -3.48358,-3.3708 -6.48063,-4.99189 -18.99052,-10.27186 -86.89695,-36.67604 -181.24176,-50.06597 -277.08925,-39.32601 -24.08273,2.69854 -46.458226,6.75452 -52.137296,9.45087 -4.819801,2.28839 -11.451885,8.77087 -13.647185,13.33934 -5.931279,12.34314 -3.675874,25.63674 5.963976,35.15235 4.378852,4.32241 8.738614,6.68999 14.61122,7.93464 5.589495,1.18466 7.275105,1.0823 20.019355,-1.2157 59.48723,-10.72649 120.75694,-10.5956 179.55149,0.38357 33.90976,6.33224 69.92519,17.28976 101.54014,30.89313 8.50708,3.66044 11.95699,4.78598 17.08686,5.57461 2.48763,0.38243 7.7279,-0.24796 11.71625,-1.40942 z"
   id="path222" /><path
   style="fill:#a6e3a1;stroke-width:0.585812;fill-opacity:1"
   d="M 255.70709,509.09541 C 233.38406,505.83186 216.77927,501.47346 197.12586,493.71908 131.39503,467.78454 79.720502,416.62224 53.138006,351.15852 44.551671,330.01327 38.55958,305.67814 35.909493,281.18993 34.726602,270.25939 34.912211,238.76505 36.221939,228.17391 40.106474,196.76154 47.166539,172.1916 59.714366,146.41723 66.58799,132.29819 71.132759,124.20958 77.699939,114.4072 116.43435,56.590986 176.37589,17.203153 244.57666,4.7518132 c 19.9725,-3.6463567 31.34759,-4.02259682 47.762,-1.5797651 48.63966,7.2386709 92.98905,27.5245169 130.61786,59.7458799 42.09116,36.042451 72.12204,87.340682 83.19741,142.116392 3.99528,19.75954 4.65022,26.83569 4.663,50.37987 0.0117,21.48202 -0.25146,25.49271 -2.67096,40.71396 -10.00568,62.94632 -43.47468,120.08374 -93.68373,159.93449 -7.37773,5.85568 -25.69128,18.25243 -33.0984,22.40486 -22.33951,12.52355 -47.77114,22.09628 -72.64073,27.34275 -22.00098,4.64131 -37.26862,5.58738 -53.01602,3.28516 z M 357.55653,374.96035 c 5.44628,-1.94617 10.7826,-7.51807 12.68467,-13.24468 1.53167,-4.6114 1.04784,-12.2006 -1.05016,-16.47282 -3.37071,-6.86388 -7.41064,-9.52297 -25.02628,-16.4724 -36.70352,-14.47965 -75.02402,-22.91691 -116.57666,-25.66739 -12.77532,-0.84563 -44.83931,-0.35272 -57.35265,0.88166 -27.06223,2.66957 -57.81223,8.5775 -64.23458,12.34125 -3.46977,2.03342 -6.498128,5.36385 -8.486317,9.33281 -1.580246,3.15459 -1.733723,3.98685 -1.728509,9.373 0.0069,7.14511 1.240516,10.35284 5.859656,15.2369 3.87665,4.09899 7.57591,5.72371 13.82467,6.07183 3.95911,0.22055 6.69547,-0.13509 16.40275,-2.13189 31.03227,-6.38339 48.69132,-8.05809 79.31223,-7.52161 23.74999,0.4161 40.17287,2.06771 59.71951,6.00584 19.16171,3.86057 42.03107,10.85677 63.00818,19.27547 l 11.13044,4.46696 4.9794,-0.28111 c 2.73868,-0.1546 6.12882,-0.69182 7.53365,-1.19382 z m 27.1626,-67.74668 c 7.21601,-2.4309 12.38921,-7.02523 15.49664,-13.76261 2.25704,-4.8936 2.62124,-13.0447 0.84425,-18.89505 -1.61153,-5.30558 -5.33288,-10.34676 -9.8788,-13.3824 -1.95066,-1.30261 -8.81086,-4.45057 -15.45014,-7.08966 -42.91068,-17.05686 -87.55919,-27.49966 -133.79058,-31.29217 -12.54486,-1.0291 -63.80261,-1.0403 -74.69107,-0.0163 -21.38825,2.01139 -44.79102,5.4578 -54.94669,8.09173 -6.45687,1.67462 -9.7668,3.40814 -13.351025,6.99237 -13.019456,13.01946 -9.347249,34.26083 7.268015,42.04078 5.77738,2.70522 11.38678,2.81595 24.70933,0.4878 12.77898,-2.23317 25.05857,-3.91383 37.19909,-5.0913 12.85296,-1.24656 48.19268,-1.76194 61.21739,-0.89276 45.721,3.05109 83.07963,11.39238 126.82837,28.31772 7.08833,2.74231 13.41511,5.11797 14.0595,5.27925 3.22612,0.80747 11.00695,0.38454 14.48572,-0.78738 z m 38.81299,-70.55356 c 5.96091,-1.26266 10.02046,-3.47516 14.43027,-7.86467 12.33706,-12.28028 12.43254,-30.67704 0.22397,-43.1529 -4.2187,-4.31106 -9.1091,-6.79189 -29.28933,-14.85807 -54.86696,-21.9307 -111.37722,-34.43456 -172.22884,-38.10857 -12.89129,-0.77833 -49.89982,-0.77697 -62.68192,0.002 -40.3759,2.46157 -79.210729,8.48802 -87.029601,13.50537 -3.116401,1.99976 -9.103421,8.09055 -10.917804,11.10701 -2.192386,3.64489 -3.691039,9.69206 -3.691039,14.89359 0,8.31724 2.480963,14.38033 8.491438,20.75175 5.831336,6.18153 13.219465,9.46221 21.308956,9.46221 1.95945,0 9.88979,-1.04703 17.62297,-2.32673 26.36793,-4.36342 43.22543,-6.07975 69.09993,-7.03538 70.10841,-2.58931 140.95355,10.47561 206.59986,38.10017 15.23234,6.4099 19.71368,7.29206 28.06114,5.52388 z"
   id="path224" /><path
   style="fill:#a6d189;fill-opacity:1;stroke-width:0.585812"
   d="M 236.9611,511.04245 C 159.40275,505.29156 87.941114,463.836 44.333847,399.29759 37.303802,388.89318 33.652302,382.7339 28.145182,371.99085 -10.409324,296.78041 -8.7766454,205.80532 32.455613,131.80778 63.764293,75.6196 116.29127,32.398283 177.20824,12.699463 203.19891,4.2948169 229.90198,0.19137829 257.46453,0.36654736 l 10.83753,0.0688761 -8.34516,1.05832984 C 230.45033,5.2357692 203.35789,13.18478 178.08696,25.514671 101.91658,62.678806 49.194381,134.52707 36.683527,218.2151 34.67593,231.64439 34.089713,240.18399 34.089713,256 c 0,15.81601 0.586217,24.35561 2.593814,37.7849 10.742196,71.85706 50.903815,135.02396 111.688193,175.66513 33.01286,22.07281 70.41758,35.83535 111.58518,41.05622 l 8.34516,1.05833 L 256,511.55327 c -6.76613,-0.006 -15.33364,-0.23609 -19.0389,-0.51083 z"
   id="path2669" /><path
   style="fill:#40a02b;fill-opacity:1;stroke-width:0.585812"
   d="M 236.08238,510.72103 C 203.17828,507.86622 173.42804,499.66038 144.10984,485.35275 79.028413,453.59224 30.424025,395.71137 10.546149,326.29748 6.013409,310.46908 3.3627933,296.26187 1.7152961,278.96442 0.53153965,266.53589 0.84917496,237.92937 2.2987675,226.41648 9.6943785,167.67936 34.743591,116.25065 75.93834,75.22659 109.04039,42.261693 150.27761,19.00995 195.21544,7.971799 213.76827,3.4146368 228.08816,1.5292067 246.91991,1.1641255 L 260.6865,0.89723981 253.94966,1.9875159 C 223.61469,6.896862 200.32043,14.183639 175.74371,26.451459 125.78034,51.391378 86.037458,91.037929 61.029246,140.88787 43.771536,175.28841 34.945193,210.35531 33.898619,248.67735 32.183603,311.4755 52.34336,370.44196 92.180257,419.14874 c 6.468136,7.9083 21.989363,23.75938 30.254523,30.89749 36.01435,31.10337 79.32943,51.3343 126.24257,58.9634 4.99405,0.81214 9.73913,1.58361 10.54462,1.71436 1.77276,0.28777 -19.82049,0.285 -23.13959,-0.003 z"
   id="path2878" /></svg>
