<?xml version="1.0" encoding="UTF-8" standalone="no"?>
<!-- Generator: Adobe Illustrator 18.0.0, SVG Export Plug-In . SVG Version: 6.00 Build 0)  -->

<svg
   version="1.1"
   id="Capa_1"
   x="0px"
   y="0px"
   viewBox="0 0 512 512"
   style="enable-background:new 0 0 512 512;"
   xml:space="preserve"
   sodipodi:docname="volume-down.svg"
   inkscape:version="1.2 (dc2aedaf03, 2022-05-15)"
   xmlns:inkscape="http://www.inkscape.org/namespaces/inkscape"
   xmlns:sodipodi="http://sodipodi.sourceforge.net/DTD/sodipodi-0.dtd"
   xmlns="http://www.w3.org/2000/svg"
   xmlns:svg="http://www.w3.org/2000/svg"><defs
   id="defs4590" /><sodipodi:namedview
   id="namedview4588"
   pagecolor="#505050"
   bordercolor="#eeeeee"
   borderopacity="1"
   inkscape:showpageshadow="0"
   inkscape:pageopacity="0"
   inkscape:pagecheckerboard="0"
   inkscape:deskcolor="#505050"
   showgrid="false"
   inkscape:zoom="1.7070312"
   inkscape:cx="256"
   inkscape:cy="256"
   inkscape:window-width="1904"
   inkscape:window-height="1040"
   inkscape:window-x="8"
   inkscape:window-y="32"
   inkscape:window-maximized="1"
   inkscape:current-layer="Capa_1" />
<g
   id="g4555">
	<path
   d="M272,0h-48L80,160H32c-17.672,0-32,14.326-32,32v128c0,17.672,14.328,32,32,32h48l144,160h48c8.836,0,16-7.164,16-16V16   C288,7.164,280.836,0,272,0z"
   id="path4551" />
	<path
   d="M480,224H352c-17.672,0-32,14.328-32,32s14.328,32,32,32h128c17.672,0,32-14.328,32-32S497.672,224,480,224z"
   id="path4553" />
</g>
<g
   id="g4557">
</g>
<g
   id="g4559">
</g>
<g
   id="g4561">
</g>
<g
   id="g4563">
</g>
<g
   id="g4565">
</g>
<g
   id="g4567">
</g>
<g
   id="g4569">
</g>
<g
   id="g4571">
</g>
<g
   id="g4573">
</g>
<g
   id="g4575">
</g>
<g
   id="g4577">
</g>
<g
   id="g4579">
</g>
<g
   id="g4581">
</g>
<g
   id="g4583">
</g>
<g
   id="g4585">
</g>
<path
   style="fill:#87b0f9;stroke-width:0.585812"
   d="M 152.22436,431.74371 80.261108,351.78032 H 55.029907 c -15.740691,0 -26.533341,-0.24072 -28.693029,-0.63995 C 14.194756,348.89577 4.0339183,339.16193 1.1748871,327.03576 -0.13578,321.47676 -0.11857076,190.45066 1.1935576,184.8842 3.9928281,173.00883 14.47717,162.97956 26.322693,160.84582 c 2.114093,-0.38081 13.361715,-0.62614 28.707214,-0.62614 H 80.261108 L 152.24468,80.23371 224.22826,0.24774211 250.36584,0.41677726 c 25.564,0.16532562 26.18989,0.19702955 28.5208,1.44469034 2.84885,1.5248964 6.44041,5.3609303 7.77898,8.3084904 0.89548,1.971868 0.96825,20.424683 0.96825,245.537132 0,199.75411 -0.13827,243.79536 -0.77101,245.58157 -1.26172,3.5618 -5.54182,7.83236 -9.23456,9.21399 -3.06452,1.14658 -4.42545,1.20444 -28.32993,1.20444 h -25.11076 z"
   id="path4955" /><path
   style="fill:#87b0f9;stroke-width:0.585812"
   d="m 347.91519,287.3521 c -13.46746,-2.017 -24.13122,-11.93846 -26.90593,-25.03302 -1.06006,-5.00272 -1.06006,-7.63544 0,-12.63816 2.7781,-13.11055 13.55052,-23.10131 26.96328,-25.00678 3.34079,-0.47461 23.77881,-0.61442 71.1762,-0.4869 l 66.4897,0.17889 4.25519,1.55508 c 5.61416,2.05173 9.36219,4.52416 13.29063,8.76734 11.15699,12.05088 11.15699,30.57202 0,42.6229 -3.92844,4.24318 -7.67647,6.71561 -13.29063,8.76734 l -4.25519,1.55508 -67.36842,0.0827 c -37.05263,0.0455 -68.7123,-0.11852 -70.35483,-0.36451 z"
   id="path4957" /></svg>
