<?xml version="1.0" encoding="UTF-8" standalone="no"?>
<!-- Generator: Adobe Illustrator 18.0.0, SVG Export Plug-In . SVG Version: 6.00 Build 0)  -->

<svg
   version="1.1"
   id="Capa_1"
   x="0px"
   y="0px"
   viewBox="0 0 512 512"
   style="enable-background:new 0 0 512 512;"
   xml:space="preserve"
   sodipodi:docname="volume-up.svg"
   inkscape:export-filename="volume-up.svg"
   inkscape:export-xdpi="4.5"
   inkscape:export-ydpi="4.5"
   inkscape:version="1.2 (dc2aedaf03, 2022-05-15)"
   xmlns:inkscape="http://www.inkscape.org/namespaces/inkscape"
   xmlns:sodipodi="http://sodipodi.sourceforge.net/DTD/sodipodi-0.dtd"
   xmlns="http://www.w3.org/2000/svg"
   xmlns:svg="http://www.w3.org/2000/svg"><defs
   id="defs471" /><sodipodi:namedview
   id="namedview469"
   pagecolor="#505050"
   bordercolor="#eeeeee"
   borderopacity="1"
   inkscape:showpageshadow="0"
   inkscape:pageopacity="0"
   inkscape:pagecheckerboard="0"
   inkscape:deskcolor="#505050"
   showgrid="false"
   inkscape:zoom="1.2070534"
   inkscape:cx="42.665885"
   inkscape:cy="241.08296"
   inkscape:window-width="1904"
   inkscape:window-height="1040"
   inkscape:window-x="8"
   inkscape:window-y="32"
   inkscape:window-maximized="1"
   inkscape:current-layer="g436" />
<g
   id="g436"
   style="fill:#87b0f9;fill-opacity:1">
	<path
   d="M272,0h-48L80,160H32c-17.672,0-32,14.326-32,32v128c0,17.672,14.328,32,32,32h48l144,160h48c8.836,0,16-7.164,16-16V16   C288,7.164,280.836,0,272,0z"
   id="path432"
   style="fill:#87b0f9;fill-opacity:1" />
	<path
   d="M480,224h-32v-32c0-17.672-14.328-32-32-32s-32,14.328-32,32v32h-32c-17.672,0-32,14.328-32,32s14.328,32,32,32h32v32   c0,17.672,14.328,32,32,32s32-14.328,32-32v-32h32c17.672,0,32-14.328,32-32S497.672,224,480,224z"
   id="path434"
   style="fill:#87b0f9;fill-opacity:1" />
</g>
<g
   id="g438">
</g>
<g
   id="g440">
</g>
<g
   id="g442">
</g>
<g
   id="g444">
</g>
<g
   id="g446">
</g>
<g
   id="g448">
</g>
<g
   id="g450">
</g>
<g
   id="g452">
</g>
<g
   id="g454">
</g>
<g
   id="g456">
</g>
<g
   id="g458">
</g>
<g
   id="g460">
</g>
<g
   id="g462">
</g>
<g
   id="g464">
</g>
<g
   id="g466">
</g>
</svg>
