<?xml version="1.0" encoding="UTF-8" standalone="no"?>
<!-- Generator: Adobe Illustrator 18.0.0, SVG Export Plug-In . SVG Version: 6.00 Build 0)  -->

<svg
   version="1.1"
   id="Capa_1"
   x="0px"
   y="0px"
   viewBox="0 0 512 512"
   style="enable-background:new 0 0 512 512;"
   xml:space="preserve"
   sodipodi:docname="volume-mute.svg"
   inkscape:version="1.2 (dc2aedaf03, 2022-05-15)"
   xmlns:inkscape="http://www.inkscape.org/namespaces/inkscape"
   xmlns:sodipodi="http://sodipodi.sourceforge.net/DTD/sodipodi-0.dtd"
   xmlns="http://www.w3.org/2000/svg"
   xmlns:svg="http://www.w3.org/2000/svg"><defs
   id="defs2616" /><sodipodi:namedview
   id="namedview2614"
   pagecolor="#505050"
   bordercolor="#eeeeee"
   borderopacity="1"
   inkscape:showpageshadow="0"
   inkscape:pageopacity="0"
   inkscape:pagecheckerboard="0"
   inkscape:deskcolor="#505050"
   showgrid="false"
   inkscape:zoom="1.7070312"
   inkscape:cx="133.27231"
   inkscape:cy="231.98169"
   inkscape:window-width="1904"
   inkscape:window-height="1040"
   inkscape:window-x="8"
   inkscape:window-y="32"
   inkscape:window-maximized="1"
   inkscape:current-layer="g2581" />
<g
   id="g2581">
	<path
   d="M461.253,256l25.375-25.375c12.496-12.492,12.496-32.758,0-45.25c-12.5-12.5-32.758-12.5-45.258,0l-25.371,25.371   l-25.371-25.371c-12.5-12.5-32.758-12.5-45.258,0c-12.496,12.492-12.496,32.758,0,45.25L370.745,256l-25.375,25.375   c-12.496,12.492-12.496,32.758,0,45.25c6.25,6.25,14.438,9.375,22.629,9.375s16.379-3.125,22.629-9.375l25.371-25.371   l25.371,25.371c6.25,6.25,14.438,9.375,22.629,9.375s16.379-3.125,22.629-9.375c12.496-12.492,12.496-32.758,0-45.25L461.253,256z"
   id="path2577"
   style="fill:#87b0f9;fill-opacity:1" />
	<path
   d="M287.999,0h-48l-144,160h-48C30.327,160,16,174.326,16,192v128c0,17.672,14.327,32,31.999,32h48l144,160h48   c8.836,0,16.001-7.164,16.001-16V16C304,7.164,296.835,0,287.999,0z"
   id="path2579" />
<path
   style="fill:#87b0f9;fill-opacity:1;stroke-width:0.585812"
   d="M 168.21741,431.76001 96.251753,351.78032 H 70.626906 c -23.612944,0 -25.980587,-0.091 -30.155802,-1.15882 -2.492026,-0.63736 -5.877996,-1.88953 -7.524378,-2.78261 -6.773063,-3.67406 -12.862465,-11.10951 -15.242932,-18.61235 l -1.301048,-4.10068 V 256 186.87414 l 1.311814,-4.17101 c 2.33502,-7.42435 8.442507,-14.85896 15.232166,-18.54202 1.646382,-0.89308 5.032352,-2.14525 7.524378,-2.78261 4.175215,-1.06784 6.542858,-1.15882 30.155802,-1.15882 h 25.624847 l 71.965657,-79.97969 71.96566,-79.97968592 26.06865,0.16275414 26.06865,0.16275414 3.20637,1.81865114 c 3.52737,2.0007217 6.63531,5.9064177 7.62515,9.5823835 0.40258,1.495092 0.54872,81.470347 0.44815,245.257713 l -0.14924,243.03919 -1.29545,2.42201 c -1.64908,3.08318 -4.3298,5.76389 -7.41297,7.41297 -2.3806,1.2733 -2.86782,1.29824 -28.49066,1.45821 l -26.06865,0.16275 z"
   id="path3283" /></g>
<g
   id="g2583">
</g>
<g
   id="g2585">
</g>
<g
   id="g2587">
</g>
<g
   id="g2589">
</g>
<g
   id="g2591">
</g>
<g
   id="g2593">
</g>
<g
   id="g2595">
</g>
<g
   id="g2597">
</g>
<g
   id="g2599">
</g>
<g
   id="g2601">
</g>
<g
   id="g2603">
</g>
<g
   id="g2605">
</g>
<g
   id="g2607">
</g>
<g
   id="g2609">
</g>
<g
   id="g2611">
</g>
</svg>
